:SAMPLES-PER-SECOND 30
:FRAME-RANGE 1-2643
:FULLY-SPECIFIED
:DEGREES
661
root  6.54256 32.464 -11.8761 -143.429 -88.5154 137.145
RightUpLeg  -46.2255 -3.40268 -12.7029
RightLeg  76.5127 1.88456 7.91063
RightFoot  -16.8933 0.245424 7.41781
RightToes  5.38607e-012 1.2921e-014 -6.02303e-014
Spine  31.1324 -1.54229 4.52725
Spine1  0.399685 0.927581 -3.35133
HEad  -2.25185 16.5655 -11.5403
LeftShoulder1  2.63981 -6.55494 -20.6162
LeftArm  -4.04439 -8.32519 -54.1003
LeftForeArm  30.9064 0.776712 -11.9942
LeftHand  -0.110453 4.17627 9.16219
RightShoulder  2.69487 6.07636 22.5926
RightArm  -32.4837 35.9626 51.2812
RightForeArm  50.909 -4.57246 -4.50411
RightHand  0.137336 -6.04099 -25.195
LeftUpLeg  -42.0116 -6.28595 4.90611
LeftLeg  62.7122 1.08148 2.97337
LeftFoot  -12.9898 0.010281 -4.69263
LeftToes  -4.79707e-012 -5.93756e-011 -7.55542e-012
662
root  4.90764 32.2965 -11.5642 -169.146 -87.6317 163.063
RightUpLeg  -44.4477 -2.78938 -14.2816
RightLeg  63.8101 4.74771 9.88977
RightFoot  -19.1471 0.464446 8.69947
RightToes  5.38607e-012 1.2921e-014 -6.02303e-014
Spine  30.501 -2.15535 5.44373
Spine1  -0.163581 0.431972 -2.34847
HEad  -3.33721 19.5902 -14.9493
LeftShoulder1  2.74878 -7.0758 -20.3018
LeftArm  -5.42384 -10.0102 -54.4956
LeftForeArm  30.3513 1.4379 -11.4045
LeftHand  -0.12208 3.98907 8.95072
RightShoulder  2.67764 6.37807 21.451
RightArm  -31.3328 38.4463 51.7834
RightForeArm  51.0813 -4.62056 -4.20324
RightHand  0.139324 -6.08035 -24.2897
LeftUpLeg  -40.5882 -4.88606 4.43563
LeftLeg  66.4736 0.887996 3.04387
LeftFoot  -18.095 -0.131302 -4.06191
LeftToes  -4.79707e-012 -5.93756e-011 -7.55542e-012
663
root  3.42518 32.3339 -11.2067 -171.383 -86.597 166.349
RightUpLeg  -43.9583 -1.1231 -15.9006
RightLeg  55.1733 6.7684 9.96056
RightFoot  -4.6861 -0.767662 12.6042
RightToes  5.38607e-012 1.2921e-014 -6.02303e-014
Spine  29.494 -2.13861 7.35978
Spine1  -0.240848 0.295184 -0.38776
HEad  -4.6339 21.1689 -18.0347
LeftShoulder1  2.86849 -7.57436 -20.1802
LeftArm  -5.66155 -12.1177 -54.3929
LeftForeArm  30.3074 1.889 -11.2524
LeftHand  -0.121942 3.91171 8.46603
RightShoulder  2.63426 6.42118 20.8421
RightArm  -29.887 40.6884 51.885
RightForeArm  51.7705 -4.72083 -3.52079
RightHand  0.125492 -6.0234 -24.0194
LeftUpLeg  -39.332 -3.06374 3.40569
LeftLeg  68.2461 0.742317 2.90102
LeftFoot  -21.8703 -0.171784 -3.2875
LeftToes  -4.79707e-012 -5.93756e-011 -7.55542e-012
664
root  1.92618 31.6457 -11.2335 -145.379 -85.4559 140.623
RightUpLeg  -45.2944 -2.06315 -18.7034
RightLeg  62.381 6.76072 13.2948
RightFoot  -13.1159 0.12943 14.0683
RightToes  5.38607e-012 1.2921e-014 -6.02303e-014
Spine  29.1053 -1.97718 6.2688
Spine1  -1.08831 0.566779 -1.95582
HEad  -6.05229 22.0321 -20.7346
LeftShoulder1  2.88995 -7.74348 -19.9554
LeftArm  -5.69525 -13.63 -53.9045
LeftForeArm  30.3202 1.50902 -11.1965
LeftHand  -0.152781 3.38449 8.14202
RightShoulder  2.60551 6.59959 20.0074
RightArm  -28.8355 42.4042 53.2338
RightForeArm  51.9943 -4.7513 -3.3102
RightHand  0.140452 -6.08071 -24.4336
LeftUpLeg  -38.8618 -1.04498 0.941321
LeftLeg  72.645 0.207374 1.84337
LeftFoot  -26.4332 -0.216125 -2.83035
LeftToes  -4.79707e-012 -5.93756e-011 -7.55542e-012
665
root  0.660627 31.4964 -11.0432 -140.973 -85.7471 136.421
RightUpLeg  -44.2237 -1.53373 -19.8796
RightLeg  64.8197 6.16629 13.5232
RightFoot  -16.3962 0.516605 14.1693
RightToes  5.38607e-012 1.2921e-014 -6.02303e-014
Spine  29.6541 -2.47295 8.21492
Spine1  -1.30662 0.485942 -2.14479
HEad  -8.12296 22.5438 -24.4129
LeftShoulder1  2.93633 -7.79287 -20.2789
LeftArm  -6.6691 -14.9294 -53.8109
LeftForeArm  29.0323 1.76522 -10.7829
LeftHand  -0.135805 3.74437 8.64288
RightShoulder  2.5437 6.7513 18.9166
RightArm  -27.547 44.4174 54.6695
RightForeArm  51.3703 -4.82295 -3.00126
RightHand  0.119365 -5.99767 -23.9017
LeftUpLeg  -38.2735 0.682735 0.45824
LeftLeg  75.7413 -0.421613 -0.587167
LeftFoot  -27.5969 -0.254438 -2.94314
LeftToes  -4.79707e-012 -5.93756e-011 -7.55542e-012
666
root  -0.468151 31.3205 -10.9322 -113.355 -85.7478 109.912
RightUpLeg  -43.7155 -2.37181 -22.1267
RightLeg  67.2621 5.60489 13.832
RightFoot  -20.1841 0.996103 14.5902
RightToes  5.38607e-012 1.2921e-014 -6.02303e-014
Spine  29.6668 -2.36709 8.06537
Spine1  -1.84202 0.378714 -1.65117
HEad  -9.88173 22.3 -26.8633
LeftShoulder1  3.06859 -8.2192 -20.4594
LeftArm  -7.55754 -16.0114 -54.2088
LeftForeArm  27.1267 2.85825 -10.3643
LeftHand  -0.152719 3.41855 8.27612
RightShoulder  2.51534 6.82389 18.4175
RightArm  -26.53 46.749 54.8336
RightForeArm  51.2588 -4.88585 -2.65858
RightHand  0.112615 -5.96168 -24.0148
LeftUpLeg  -40.3678 2.31493 -0.444631
LeftLeg  80.1049 -1.09966 -5.81192
LeftFoot  -24.4838 -0.263698 -3.56439
LeftToes  -4.79707e-012 -5.93756e-011 -7.55542e-012
